<svg version="1.1" xmlns="http://www.w3.org/2000/svg" xmlns:xlink="http://www.w3.org/1999/xlink" width="62.54565" height="14.48442" viewBox="0,0,62.54565,14.48442"><g transform="translate(-208.43736,-179.33114)"><g data-paper-data="{&quot;isPaintingLayer&quot;:true}" fill-rule="nonzero" stroke="none" stroke-width="1" stroke-linecap="butt" stroke-linejoin="miter" stroke-miterlimit="10" stroke-dasharray="" stroke-dashoffset="0" style="mix-blend-mode: normal"><path d="M216.78655,192.02985c-0.61152,-0.12233 -7.5552,3.82295 -7.75943,0.35681c-0.40962,-4.18791 -1.26706,-6.46351 0.38809,-10.31098c0.18642,-3.30343 1.79896,-3.09933 4.24271,-2.09417c3.64803,1.50051 8.06883,2.43233 9.04653,2.36151h6.83925c1.08959,0 2.99493,0 5.71601,0c2.17802,-0.12233 4.35605,-0.12233 6.53291,0c11.0224,0 18.44068,0 22.25019,0c0.22915,-2.47855 1.44469,-1.00134 3.05693,-0.4889c1.7432,0.55406 3.88327,0.33283 3.88327,2.56042l0,4.28782c0,0 -0.48404,2.6899 -2.16177,3.84259c-1.65634,1.13798 -4.50619,0.74247 -4.57421,0.20259h-38.37709c-3.26646,-0.24059 -5.7485,-0.35885 -7.45077,-0.35885c-0.54422,-0.12234 -1.08727,-0.24059 -1.63265,-0.35885z" fill="#00cccc"/><path d="M222.17593,185.44125c0.41965,-0.05179 0.83752,-0.10357 1.25627,-0.15715c1.30985,0 3.21971,-0.05179 5.73315,-0.15715l29.53004,0c0.05234,-0.23642 2.24522,-0.40962 3.51972,0.08872c1.29096,0.50478 1.66342,1.68274 1.66342,1.68274l0,1.87772c0,0.9755 -1.64672,0.87862 -2.98806,1.12126c-1.24057,0.22441 -2.17589,0.8713 -2.35222,-0.2141c-2.93131,0 -8.63945,0 -17.12087,0c-1.67503,0.05357 -3.35096,0.05357 -5.02688,0c-2.09379,0 -3.55989,0 -4.3983,0h-5.2626c-0.75231,-0.03101 -4.15399,0.37705 -6.96104,1.03415c-1.88039,0.44018 -3.1212,0.52956 -3.26464,-0.91708c-1.27359,-1.68488 -0.61381,-2.68141 -0.29863,-4.51537c0.15715,-1.51789 5.50011,0.20983 5.97065,0.15625z" fill="#ffffff"/></g></g></svg>