<svg version="1.1" xmlns="http://www.w3.org/2000/svg" xmlns:xlink="http://www.w3.org/1999/xlink" width="23.76718" height="33.78318" viewBox="0,0,23.76718,33.78318"><g transform="translate(-227.71251,-181.66874)"><g data-paper-data="{&quot;isPaintingLayer&quot;:true}" fill-rule="nonzero" stroke="none" stroke-width="0" stroke-linecap="butt" stroke-linejoin="miter" stroke-miterlimit="10" stroke-dasharray="" stroke-dashoffset="0" style="mix-blend-mode: normal"><path d="M229.19156,196.369c0.12182,-3.87409 -2.64509,-8.21218 -0.89986,-10.8085c2.0769,-3.08972 8.9272,-4.07202 12.16207,-3.8654c3.01589,0.19262 8.27659,-0.45763 10.14354,2.51233c1.81829,2.89254 0.2842,9.35228 0.15256,13.53844c-0.26678,8.48441 -11.35145,18.07531 -17.3046,17.6951c-4.1573,-0.26551 3.15211,-7.30288 1.50833,-12.33081c-0.71009,-2.17198 -5.84253,-4.18171 -5.76205,-6.74117z" fill="#00cccc"/><path d="M236.76507,195.07172c0.04812,-1.53029 -1.04483,-3.24387 -0.35545,-4.26943c0.82039,-1.22046 3.52631,-1.60847 4.80411,-1.52687c1.1913,0.07608 3.26932,-0.18077 4.00677,0.99239c0.71824,1.14258 0.11226,3.69422 0.06027,5.34778c-0.10538,3.3514 -4.4839,7.13988 -6.83544,6.98969c-1.64216,-0.10488 1.91853,-2.88469 1.26923,-4.87076c-0.28049,-0.85795 -2.98127,-1.6518 -2.94948,-2.66281z" fill="#ffffff"/></g></g></svg>