<svg version="1.1" xmlns="http://www.w3.org/2000/svg" xmlns:xlink="http://www.w3.org/1999/xlink" width="15.67884" height="83.83698" viewBox="0,0,15.67884,83.83698"><g transform="translate(-232.16058,-138.08151)"><g data-paper-data="{&quot;isPaintingLayer&quot;:true}" fill-rule="nonzero" stroke="none" stroke-linecap="butt" stroke-linejoin="miter" stroke-miterlimit="10" stroke-dasharray="" stroke-dashoffset="0" style="mix-blend-mode: normal"><path d="M232.16058,214.07907c0,-4.32959 3.50982,-7.83942 7.83942,-7.83942c4.32959,0 7.83942,3.50982 7.83942,7.83942c0,4.32959 -3.50982,7.83942 -7.83942,7.83942c-4.32959,0 -7.83942,-3.50982 -7.83942,-7.83942z" fill="#00cccc" stroke-width="0"/><path d="M236.91362,214.07907c0,-1.70457 1.38182,-3.08638 3.08638,-3.08638c1.70457,0 3.08638,1.38182 3.08638,3.08638c0,1.70457 -1.38182,3.08638 -3.08638,3.08638c-1.70457,0 -3.08638,-1.38182 -3.08638,-3.08638z" fill="#ffffff" stroke-width="0"/><path d="M234.93564,146.4307c-0.11826,0.54538 -0.23651,1.08843 -0.35885,1.63265c0,1.70227 -0.11826,4.18431 -0.35885,7.45077v38.37709c-0.53988,0.06802 -0.93539,2.91787 0.20259,4.57421c1.15269,1.67773 3.84259,2.16177 3.84259,2.16177h4.28782c2.22759,0 2.00636,-2.14007 2.56042,-3.88327c0.51244,-1.61224 1.98965,-2.82778 -0.4889,-3.05693c0,-3.80951 0,-11.22779 0,-22.25019c0.12233,-2.17686 0.12233,-4.35489 0,-6.53291c0,-2.72108 0,-4.62642 0,-5.71601v-6.83925c-0.07082,-0.9777 0.861,-5.3985 2.36151,-9.04653c1.00516,-2.44375 1.20926,-4.05629 -2.09417,-4.24271c-3.84747,-1.65515 -6.12307,-0.79771 -10.31098,-0.38809c-3.46614,0.20423 0.47914,7.14791 0.35681,7.75943z" fill="#00cccc" stroke-width="1"/><path d="M241.52423,151.82011c0.05179,0.41965 0.10357,0.83752 0.15715,1.25627c0,1.30985 0.05179,3.21971 0.15715,5.73315v29.53004c0.23642,0.05234 0.40962,2.24522 -0.08872,3.51972c-0.50478,1.29096 -1.68274,1.66342 -1.68274,1.66342h-1.87772c-0.9755,0 -0.87862,-1.64672 -1.12126,-2.98806c-0.22441,-1.24057 -0.8713,-2.17589 0.2141,-2.35222c0,-2.93131 0,-8.63945 0,-17.12087c-0.05357,-1.67503 -0.05357,-3.35096 0,-5.02688c0,-2.09379 0,-3.55989 0,-4.3983v-5.2626c0.03101,-0.75231 -0.37705,-4.15399 -1.03415,-6.96104c-0.44018,-1.88039 -0.52956,-3.1212 0.91708,-3.26464c1.68488,-1.27359 2.68141,-0.61381 4.51537,-0.29863c1.51789,0.15715 -0.20983,5.50011 -0.15625,5.97065z" fill="#ffffff" stroke-width="1"/></g></g></svg>